<?xml version="1.0" encoding="UTF-8"?>
<svg width="30px" height="30px" viewBox="0 0 30 30" version="1.1" xmlns="http://www.w3.org/2000/svg" xmlns:xlink="http://www.w3.org/1999/xlink">
  <g id="页面-1" stroke="none" stroke-width="1" fill="none" fill-rule="evenodd">
    <g id="首页-软件演示" transform="translate(-871.000000, -396.000000)" fill="#333333" fill-rule="nonzero">
      <g id="gitee2" transform="translate(871.000000, 396.000000)">
        <path d="M15,30 C6.71625,30 0,23.28375 0,15 C0,6.71625 6.71625,0 15,0 C23.28375,0 30,6.71625 30,15 C30,23.28375 23.28375,30 15,30 Z M22.5928125,13.333125 L14.0746875,13.333125 C13.6656516,13.333125 13.3340625,13.6647141 13.3340625,14.07375 L13.333125,15.92625 C13.333125,16.335 13.6640625,16.666875 14.07375,16.666875 L19.26,16.666875 C19.6690359,16.666875 20.000625,16.9984641 20.000625,17.4075 L20.000625,17.7778125 C20.000625,19.0049202 19.0058577,19.9996875 17.77875,19.9996875 L10.7409375,19.9996875 C10.3319016,19.9996875 10.0003125,19.6680984 10.0003125,19.2590625 L10.0003125,12.2221875 C10.0003125,10.9950798 10.9950798,10.0003125 12.2221875,10.0003125 L22.5909375,10.0003125 C22.9999734,10.0003125 23.3315625,9.66872339 23.3315625,9.2596875 L23.3334375,7.408125 C23.3334375,6.99893718 23.002,6.6670798 22.5928125,6.6665625 L12.2221875,6.6665625 C9.15426662,6.6665625 6.66708021,9.15332916 6.6665625,12.22125 L6.6665625,22.5909375 C6.6665625,22.9996875 6.9984375,23.3315625 7.4071875,23.3315625 L18.3328125,23.3315625 C21.0940637,23.3315625 23.3325,21.0931262 23.3325,18.331875 L23.3325,14.0728125 C23.3325,13.6637766 23.0009109,13.3321875 22.591875,13.3321875 L22.5928125,13.333125 Z" id="形状"></path>
      </g>
    </g>
  </g>
</svg>
